<svg width="40" height="40" viewBox="0 0 40 40" fill="none" xmlns="http://www.w3.org/2000/svg">
<path d="M3.63636 0C1.62727 0 0 1.62727 0 3.63636V36.3636C0 38.3727 1.62727 40 3.63636 40H36.3636C38.3727 40 40 38.3727 40 36.3636V3.63636C40 1.62727 38.3727 0 36.3636 0H3.63636ZM15.1065 7.27273H20C24.3273 7.27273 27.8647 10.8305 27.8338 15.1669C27.8247 16.2251 28.7323 17.0632 29.7905 17.0632H30.7706C31.8524 17.0632 32.7273 17.9416 32.7273 19.0234V24.8935C32.7273 29.2026 29.2026 32.7273 24.8935 32.7273H15.103C10.7957 32.7273 7.27273 29.2026 7.27273 24.8935V20V15.1065C7.27273 10.7974 10.7974 7.27273 15.1065 7.27273ZM15.1065 13.1463C14.0302 13.1463 13.1463 14.0302 13.1463 15.1065C13.1463 16.1829 14.0302 17.0632 15.1065 17.0632H20C21.0764 17.0632 21.9567 16.1829 21.9567 15.1065C21.9567 14.0302 21.0764 13.1463 20 13.1463H15.1065ZM15.103 22.9368C14.0266 22.9368 13.1463 23.8171 13.1463 24.8935C13.1463 25.9698 14.0266 26.8537 15.103 26.8537H24.8935C25.9698 26.8537 26.8537 25.9698 26.8537 24.8935C26.8537 23.8171 25.9716 22.9368 24.8935 22.9368H15.103Z" fill="black"/>
</svg>
