<svg width="35" height="35" viewBox="0 0 35 35" fill="none" xmlns="http://www.w3.org/2000/svg">
<path d="M17.036 9.07992L5.83379 20.9445V33.7499C5.83379 34.0814 5.93622 34.3994 6.11853 34.6338C6.30084 34.8683 6.54811 35 6.80594 35L13.6146 34.9773C13.8716 34.9757 14.1176 34.8432 14.2989 34.609C14.4802 34.3747 14.5819 34.0577 14.5819 33.7272V26.249C14.5819 25.9175 14.6843 25.5995 14.8666 25.365C15.049 25.1306 15.2962 24.9989 15.5541 24.9989H19.4426C19.7005 24.9989 19.9477 25.1306 20.1301 25.365C20.3124 25.5995 20.4148 25.9175 20.4148 26.249V33.7217C20.4144 33.8862 20.4392 34.0492 20.4879 34.2013C20.5366 34.3535 20.6081 34.4917 20.6984 34.6082C20.7888 34.7247 20.8961 34.8172 21.0142 34.8802C21.1324 34.9433 21.259 34.9758 21.3869 34.9758L28.1932 35C28.451 35 28.6983 34.8683 28.8806 34.6338C29.0629 34.3994 29.1653 34.0814 29.1653 33.7499V20.9359L17.9656 9.07992C17.8339 8.94344 17.6699 8.86901 17.5008 8.86901C17.3317 8.86901 17.1676 8.94344 17.036 9.07992ZM34.7309 17.1441L29.6514 11.7599V0.937605C29.6514 0.688936 29.5746 0.450453 29.4379 0.274618C29.3011 0.0987832 29.1157 0 28.9223 0H25.5198C25.3264 0 25.141 0.0987832 25.0042 0.274618C24.8675 0.450453 24.7907 0.688936 24.7907 0.937605V6.61089L19.3509 0.855564C18.8289 0.303143 18.1738 0.0011043 17.4977 0.0011043C16.8217 0.0011043 16.1666 0.303143 15.6446 0.855564L0.264606 17.1441C0.190776 17.2226 0.129693 17.319 0.0848477 17.4278C0.0400026 17.5367 0.0122738 17.6558 0.00324585 17.7784C-0.00578212 17.9011 0.00406762 18.0248 0.0322323 18.1425C0.0603969 18.2602 0.106325 18.3697 0.167391 18.4646L1.71675 20.8867C1.77765 20.9819 1.85256 21.0608 1.93718 21.1187C2.02181 21.1767 2.11449 21.2126 2.20993 21.2244C2.30536 21.2363 2.40167 21.2238 2.49335 21.1877C2.58503 21.1516 2.67027 21.0926 2.74419 21.0141L17.036 5.87644C17.1676 5.73996 17.3317 5.66553 17.5008 5.66553C17.6699 5.66553 17.8339 5.73996 17.9656 5.87644L32.258 21.0141C32.3318 21.0926 32.4169 21.1517 32.5084 21.1879C32.6 21.2241 32.6962 21.2368 32.7915 21.2251C32.8869 21.2135 32.9795 21.1779 33.0642 21.1202C33.1488 21.0625 33.2238 20.984 33.2848 20.889L34.8342 18.4669C34.8952 18.3715 34.9409 18.2615 34.9687 18.1432C34.9966 18.025 35.006 17.9008 34.9964 17.7779C34.9868 17.655 34.9584 17.5357 34.9128 17.4269C34.8672 17.3182 34.8054 17.222 34.7309 17.1441Z" fill="black"/>
</svg>
