<svg width="35" height="36" viewBox="0 0 35 36" fill="none" xmlns="http://www.w3.org/2000/svg">
<path d="M17.036 9.57992L5.83379 21.4445V34.2499C5.83379 34.5814 5.93622 34.8994 6.11853 35.1338C6.30084 35.3683 6.54811 35.5 6.80594 35.5L13.6146 35.4773C13.8716 35.4757 14.1176 35.3432 14.2989 35.109C14.4802 34.8747 14.5819 34.5577 14.5819 34.2272V26.749C14.5819 26.4175 14.6843 26.0995 14.8666 25.865C15.049 25.6306 15.2962 25.4989 15.5541 25.4989H19.4426C19.7005 25.4989 19.9477 25.6306 20.1301 25.865C20.3124 26.0995 20.4148 26.4175 20.4148 26.749V34.2217C20.4144 34.3862 20.4392 34.5492 20.4879 34.7013C20.5366 34.8535 20.6081 34.9917 20.6984 35.1082C20.7888 35.2247 20.8961 35.3172 21.0142 35.3802C21.1324 35.4433 21.259 35.4758 21.3869 35.4758L28.1932 35.5C28.451 35.5 28.6983 35.3683 28.8806 35.1338C29.0629 34.8994 29.1653 34.5814 29.1653 34.2499V21.4359L17.9656 9.57992C17.8339 9.44344 17.6699 9.36901 17.5008 9.36901C17.3317 9.36901 17.1676 9.44344 17.036 9.57992ZM34.7309 17.6441L29.6514 12.2599V1.4376C29.6514 1.18894 29.5746 0.950453 29.4379 0.774618C29.3011 0.598783 29.1157 0.5 28.9223 0.5H25.5198C25.3264 0.5 25.141 0.598783 25.0042 0.774618C24.8675 0.950453 24.7907 1.18894 24.7907 1.4376V7.11089L19.3509 1.35556C18.8289 0.803143 18.1738 0.501104 17.4977 0.501104C16.8217 0.501104 16.1666 0.803143 15.6446 1.35556L0.264606 17.6441C0.190776 17.7226 0.129693 17.819 0.0848477 17.9278C0.0400026 18.0367 0.0122738 18.1558 0.00324585 18.2784C-0.00578212 18.4011 0.00406762 18.5248 0.0322323 18.6425C0.0603969 18.7602 0.106325 18.8697 0.167391 18.9646L1.71675 21.3867C1.77765 21.4819 1.85256 21.5608 1.93718 21.6187C2.02181 21.6767 2.11449 21.7126 2.20993 21.7244C2.30536 21.7363 2.40167 21.7238 2.49335 21.6877C2.58503 21.6516 2.67027 21.5926 2.74419 21.5141L17.036 6.37644C17.1676 6.23996 17.3317 6.16553 17.5008 6.16553C17.6699 6.16553 17.8339 6.23996 17.9656 6.37644L32.258 21.5141C32.3318 21.5926 32.4169 21.6517 32.5084 21.6879C32.6 21.7241 32.6962 21.7368 32.7915 21.7251C32.8869 21.7135 32.9795 21.6779 33.0642 21.6202C33.1488 21.5625 33.2238 21.484 33.2848 21.389L34.8342 18.9669C34.8952 18.8715 34.9409 18.7615 34.9687 18.6432C34.9966 18.525 35.006 18.4008 34.9964 18.2779C34.9868 18.155 34.9584 18.0357 34.9128 17.9269C34.8672 17.8182 34.8054 17.722 34.7309 17.6441Z" fill="#E8F5FF"/>
</svg>
