<svg width="35" height="35" viewBox="0 0 35 35" fill="none" xmlns="http://www.w3.org/2000/svg">
<path d="M34.4873 9.14442L23.1123 0.394423C22.7833 0.141346 22.3388 0 21.875 0H3.5C1.56625 0 0 1.20481 0 2.69231V32.3077C0 33.7952 1.56625 35 3.5 35H31.5C33.4338 35 35 33.7952 35 32.3077V10.0962C35 9.73942 34.8162 9.3975 34.4873 9.14442ZM22.75 25.5769H8.75C7.784 25.5769 7 24.9738 7 24.2308C7 23.4877 7.784 22.8846 8.75 22.8846H22.75C23.716 22.8846 24.5 23.4877 24.5 24.2308C24.5 24.9738 23.716 25.5769 22.75 25.5769ZM26.25 20.1923H8.75C7.784 20.1923 7 19.5892 7 18.8462C7 18.1031 7.784 17.5 8.75 17.5H26.25C27.216 17.5 28 18.1031 28 18.8462C28 19.5892 27.216 20.1923 26.25 20.1923ZM22.75 10.7692C21.784 10.7692 21 10.1662 21 9.42308V2.56308L31.668 10.7692H22.75Z" fill="black"/>
</svg>
