<svg width="222" height="160" viewBox="0 0 222 160" fill="none" xmlns="http://www.w3.org/2000/svg">
<g clip-path="url(#clip0_66_2)">
<path opacity="0.1" d="M128.986 28.2173C114.754 27.7226 101.188 23.127 88.2541 18.1001C75.3199 13.0732 62.5002 7.50255 48.6014 4.83885C39.6652 3.12369 29.4454 2.88246 22.2466 7.67427C15.3176 12.2841 13.0795 20.2425 11.8756 27.6265C10.9701 33.1828 10.4448 39.0295 12.9201 44.2322C14.6431 47.8424 17.7009 50.8782 19.8164 54.3371C27.1746 66.3718 21.9727 81.2133 13.9972 92.9741C10.2568 98.4936 5.91746 103.745 3.0314 109.615C0.145336 115.484 -1.19141 122.207 1.33492 128.193C3.83876 134.121 9.80302 138.582 16.266 141.716C29.3923 148.076 44.8589 149.895 59.9412 150.938C93.3272 153.221 126.893 152.232 160.367 151.242C172.755 150.874 185.199 150.504 197.385 148.585C204.152 147.52 211.141 145.831 216.054 141.755C222.29 136.579 223.838 127.817 219.658 121.326C212.647 110.442 193.264 107.738 188.363 96.0568C185.667 89.6276 188.436 82.4644 192.357 76.5012C200.764 63.7101 214.859 52.487 215.601 37.8643C216.112 27.8207 209.336 17.7649 198.859 13.0119C187.878 8.02588 172.651 8.65552 164.551 16.896C156.209 25.3859 141.55 28.6527 128.986 28.2173Z" fill="#89B1B4"/>
<path d="M49.5146 148.219C49.5146 148.219 38.2729 139.719 36.1492 128.906C35.288 124.365 32.978 120.226 29.5656 117.109C27.9332 115.643 26.1701 114.329 24.2983 113.184" stroke="#535461" stroke-width="2" stroke-miterlimit="10"/>
<path d="M22.9232 106.372C23.9083 107.705 24.3539 113.354 24.3539 113.354C24.3539 113.354 19.0867 111.279 18.0994 109.948C17.6254 109.308 17.4248 108.506 17.5419 107.718C17.659 106.931 18.0842 106.222 18.7239 105.748C19.3635 105.274 20.1653 105.073 20.9528 105.19C21.7404 105.307 22.4491 105.733 22.9232 106.372Z" fill="#89B1B4"/>
<path d="M32.3701 110.804C32.4723 112.458 29.7804 117.442 29.7804 117.442C29.7804 117.442 26.4835 112.834 26.3793 111.18C26.3396 110.392 26.6122 109.62 27.1379 109.031C27.6637 108.442 28.4002 108.084 29.188 108.035C29.9757 107.985 30.7512 108.248 31.3465 108.767C31.9417 109.285 32.3088 110.017 32.3681 110.804H32.3701Z" fill="#89B1B4"/>
<path d="M41.5272 123.544C40.7832 125.024 35.941 127.968 35.941 127.968C35.941 127.968 35.4239 122.326 36.1679 120.846C36.5342 120.15 37.159 119.625 37.9079 119.386C38.6568 119.146 39.47 119.209 40.1724 119.563C40.8748 119.917 41.4103 120.532 41.6637 121.277C41.9171 122.021 41.868 122.836 41.5272 123.544Z" fill="#89B1B4"/>
<path d="M46.2873 134.739C45.8029 136.323 41.529 140.042 41.529 140.042C41.529 140.042 40.0635 134.569 40.5479 132.983C40.7807 132.221 41.3064 131.584 42.0092 131.21C42.712 130.837 43.5344 130.758 44.2955 130.991C45.0566 131.223 45.694 131.749 46.0675 132.452C46.4411 133.155 46.5201 133.978 46.2873 134.739Z" fill="#89B1B4"/>
<path d="M24.9077 121.449C26.5429 121.67 31.7121 119.335 31.7121 119.335C31.7121 119.335 27.3503 115.721 25.7069 115.5C24.9182 115.394 24.1196 115.606 23.487 116.089C22.8543 116.571 22.4394 117.286 22.3334 118.075C22.2274 118.864 22.4391 119.662 22.9219 120.295C23.4047 120.928 24.119 121.343 24.9077 121.449Z" fill="#89B1B4"/>
<path d="M30.641 134.473C32.2761 134.193 36.501 130.421 36.501 130.421C36.501 130.421 31.2562 128.279 29.6231 128.559C29.2321 128.623 28.8576 128.764 28.5214 128.974C28.1851 129.183 27.8937 129.457 27.6639 129.78C27.4342 130.103 27.2706 130.468 27.1827 130.855C27.0948 131.241 27.0843 131.641 27.1517 132.032C27.2192 132.422 27.3634 132.795 27.5758 133.13C27.7883 133.464 28.0649 133.753 28.3897 133.98C28.7145 134.207 29.081 134.368 29.4681 134.452C29.8552 134.537 30.2552 134.544 30.645 134.473H30.641Z" fill="#89B1B4"/>
<path d="M37.9479 146.369C39.6055 146.369 44.4088 143.366 44.4088 143.366C44.4088 143.366 39.6035 140.367 37.9458 140.367C37.15 140.367 36.3869 140.683 35.8241 141.246C35.2614 141.808 34.9453 142.572 34.9453 143.368C34.9453 144.164 35.2614 144.927 35.8241 145.49C36.3869 146.053 37.15 146.369 37.9458 146.369H37.9479Z" fill="#89B1B4"/>
<path d="M158.723 74.7002C158.723 74.7002 165.652 62.4243 176.097 58.8877C180.483 57.4309 184.278 54.5911 186.913 50.7943C188.149 48.9792 189.216 47.0542 190.1 45.0438" stroke="#535461" stroke-width="2" stroke-miterlimit="10"/>
<path d="M196.657 42.795C195.467 43.948 189.93 45.1419 189.93 45.1419C189.93 45.1419 191.289 39.6427 192.479 38.4877C193.053 37.9501 193.816 37.6594 194.602 37.6783C195.388 37.6972 196.136 38.0242 196.683 38.5889C197.231 39.1535 197.535 39.9107 197.53 40.6974C197.525 41.4841 197.212 42.2373 196.657 42.795Z" fill="#89B1B4"/>
<path d="M193.526 52.7364C191.891 53.0594 186.603 51.0519 186.603 51.0519C186.603 51.0519 190.732 47.1678 192.357 46.8509C192.747 46.7643 193.15 46.7566 193.544 46.8281C193.937 46.8996 194.312 47.049 194.647 47.2674C194.981 47.4858 195.269 47.7689 195.493 48.1001C195.717 48.4313 195.872 48.8038 195.95 49.1959C196.028 49.5879 196.027 49.9916 195.946 50.3832C195.866 50.7748 195.708 51.1464 195.483 51.4762C195.257 51.806 194.967 52.0874 194.631 52.3038C194.295 52.5202 193.92 52.6673 193.526 52.7364Z" fill="#89B1B4"/>
<path d="M182.129 63.5057C180.563 62.964 177.004 58.5565 177.004 58.5565C177.004 58.5565 182.523 57.2931 184.093 57.8349C184.47 57.96 184.819 58.1588 185.118 58.4197C185.418 58.6807 185.663 58.9986 185.839 59.355C186.015 59.7113 186.118 60.0991 186.143 60.4958C186.168 60.8924 186.113 61.2901 185.983 61.6656C185.853 62.0411 185.65 62.3871 185.385 62.6834C185.12 62.9797 184.799 63.2204 184.441 63.3916C184.082 63.5628 183.693 63.661 183.296 63.6806C182.899 63.7002 182.502 63.6407 182.129 63.5057Z" fill="#89B1B4"/>
<path d="M171.655 69.7122C170.02 69.4423 165.777 65.691 165.777 65.691C165.777 65.691 171.007 63.5118 172.64 63.7817C173.426 63.911 174.129 64.3473 174.593 64.9946C175.058 65.642 175.246 66.4473 175.117 67.2335C174.987 68.0196 174.551 68.7222 173.904 69.1867C173.257 69.6511 172.452 69.8394 171.665 69.7101L171.655 69.7122Z" fill="#89B1B4"/>
<path d="M181.985 46.7528C181.983 48.4107 184.99 53.2209 184.99 53.2209C184.99 53.2209 187.993 48.4168 187.993 46.761C188.003 46.3604 187.933 45.9618 187.787 45.5887C187.641 45.2156 187.422 44.8755 187.142 44.5885C186.863 44.3015 186.528 44.0734 186.159 43.9176C185.79 43.7619 185.394 43.6816 184.993 43.6816C184.592 43.6816 184.196 43.7619 183.827 43.9176C183.458 44.0734 183.123 44.3015 182.844 44.5885C182.564 44.8755 182.345 45.2156 182.199 45.5887C182.053 45.9618 181.983 46.3604 181.994 46.761L181.985 46.7528Z" fill="#89B1B4"/>
<path d="M169.838 54.1653C170.333 55.7476 174.633 59.4375 174.633 59.4375C174.633 59.4375 176.064 53.9548 175.565 52.3725C175.307 51.6394 174.774 51.0353 174.079 50.6874C173.384 50.3395 172.581 50.2749 171.839 50.5072C171.097 50.7396 170.475 51.2508 170.102 51.9331C169.73 52.6154 169.637 53.4157 169.842 54.1653H169.838Z" fill="#89B1B4"/>
<path d="M159.032 62.9905C159.253 64.6259 162.866 68.9946 162.866 68.9946C162.866 68.9946 165.198 63.8327 164.978 62.1912C164.934 61.7935 164.811 61.4085 164.616 61.059C164.422 60.7094 164.159 60.4023 163.844 60.1558C163.529 59.9093 163.167 59.7283 162.781 59.6235C162.395 59.5187 161.992 59.4921 161.595 59.5454C161.199 59.5987 160.817 59.7308 160.472 59.9339C160.128 60.137 159.827 60.4069 159.588 60.7279C159.349 61.0489 159.177 61.4144 159.081 61.803C158.986 62.1916 158.969 62.5953 159.032 62.9905Z" fill="#89B1B4"/>
<path opacity="0.25" d="M196.657 42.795C195.467 43.948 189.93 45.1419 189.93 45.1419C189.93 45.1419 191.289 39.6427 192.479 38.4877C193.053 37.9501 193.816 37.6594 194.602 37.6783C195.388 37.6972 196.136 38.0242 196.683 38.5889C197.231 39.1535 197.535 39.9107 197.53 40.6974C197.525 41.4841 197.212 42.2373 196.657 42.795Z" fill="black"/>
<path opacity="0.25" d="M193.526 52.7364C191.891 53.0594 186.603 51.0519 186.603 51.0519C186.603 51.0519 190.732 47.1678 192.357 46.8509C192.747 46.7643 193.15 46.7566 193.544 46.8281C193.937 46.8996 194.312 47.049 194.647 47.2674C194.981 47.4858 195.269 47.7689 195.493 48.1001C195.717 48.4313 195.872 48.8038 195.95 49.1959C196.028 49.5879 196.027 49.9916 195.946 50.3832C195.866 50.7748 195.708 51.1464 195.483 51.4762C195.257 51.806 194.967 52.0874 194.631 52.3038C194.295 52.5202 193.92 52.6673 193.526 52.7364Z" fill="black"/>
<path opacity="0.25" d="M182.129 63.5057C180.563 62.964 177.004 58.5565 177.004 58.5565C177.004 58.5565 182.523 57.2931 184.093 57.8349C184.47 57.96 184.819 58.1588 185.118 58.4197C185.418 58.6807 185.663 58.9986 185.839 59.355C186.015 59.7113 186.118 60.0991 186.143 60.4958C186.168 60.8924 186.113 61.2901 185.983 61.6656C185.853 62.0411 185.65 62.3871 185.385 62.6834C185.12 62.9797 184.799 63.2204 184.441 63.3916C184.082 63.5628 183.693 63.661 183.296 63.6806C182.899 63.7002 182.502 63.6407 182.129 63.5057Z" fill="black"/>
<path opacity="0.25" d="M171.655 69.7122C170.02 69.4423 165.777 65.691 165.777 65.691C165.777 65.691 171.007 63.5118 172.64 63.7817C173.426 63.911 174.129 64.3473 174.593 64.9946C175.058 65.642 175.246 66.4473 175.117 67.2335C174.987 68.0196 174.551 68.7222 173.904 69.1867C173.257 69.6511 172.452 69.8394 171.665 69.7101L171.655 69.7122Z" fill="black"/>
<path opacity="0.25" d="M181.985 46.7528C181.983 48.4107 184.99 53.2209 184.99 53.2209C184.99 53.2209 187.993 48.4168 187.993 46.761C188.003 46.3604 187.933 45.9618 187.787 45.5887C187.641 45.2156 187.422 44.8755 187.142 44.5885C186.863 44.3015 186.528 44.0734 186.159 43.9176C185.79 43.7619 185.394 43.6816 184.993 43.6816C184.592 43.6816 184.196 43.7619 183.827 43.9176C183.458 44.0734 183.123 44.3015 182.844 44.5885C182.564 44.8755 182.345 45.2156 182.199 45.5887C182.053 45.9618 181.983 46.3604 181.994 46.761L181.985 46.7528Z" fill="black"/>
<path opacity="0.25" d="M169.838 54.1653C170.333 55.7476 174.633 59.4375 174.633 59.4375C174.633 59.4375 176.064 53.9548 175.565 52.3725C175.307 51.6394 174.774 51.0353 174.079 50.6874C173.384 50.3395 172.581 50.2749 171.839 50.5072C171.097 50.7396 170.475 51.2508 170.102 51.9331C169.73 52.6154 169.637 53.4157 169.842 54.1653H169.838Z" fill="black"/>
<path opacity="0.25" d="M159.032 62.9905C159.253 64.6259 162.866 68.9946 162.866 68.9946C162.866 68.9946 165.198 63.8327 164.978 62.1912C164.934 61.7935 164.811 61.4085 164.616 61.059C164.422 60.7094 164.159 60.4023 163.844 60.1558C163.529 59.9093 163.167 59.7283 162.781 59.6235C162.395 59.5187 161.992 59.4921 161.595 59.5454C161.199 59.5987 160.817 59.7308 160.472 59.9339C160.128 60.137 159.827 60.4069 159.588 60.7279C159.349 61.0489 159.177 61.4144 159.081 61.803C158.986 62.1916 158.969 62.5953 159.032 62.9905Z" fill="black"/>
<path d="M159.122 74.4569C159.122 74.4569 160.483 60.425 168.59 52.9633C172.009 49.8536 174.328 45.7193 175.2 41.1801C175.597 39.0222 175.794 36.8324 175.791 34.6384" stroke="#535461" stroke-width="2" stroke-miterlimit="10"/>
<path d="M180.872 29.9038C180.259 31.4411 175.672 34.7774 175.672 34.7774C175.672 34.7774 174.687 29.1985 175.306 27.6612C175.604 26.923 176.183 26.3336 176.916 26.0224C177.649 25.7113 178.475 25.7041 179.213 26.0023C179.951 26.3005 180.54 26.8797 180.852 27.6125C181.163 28.3453 181.17 29.1717 180.872 29.9099V29.9038Z" fill="#89B1B4"/>
<path d="M182.039 40.2724C180.683 41.225 175.028 41.5378 175.028 41.5378C175.028 41.5378 177.231 36.3167 178.586 35.3641C178.908 35.1235 179.274 34.9499 179.664 34.8535C180.053 34.7571 180.459 34.7399 180.855 34.8028C181.251 34.8658 181.631 35.0077 181.972 35.2202C182.312 35.4326 182.607 35.7112 182.838 36.0396C183.069 36.3679 183.232 36.7392 183.317 37.1316C183.402 37.524 183.407 37.9295 183.333 38.324C183.258 38.7185 183.105 39.094 182.883 39.4283C182.661 39.7627 182.373 40.049 182.039 40.2704V40.2724Z" fill="#89B1B4"/>
<path d="M175.976 54.7418C174.325 54.8808 169.284 52.2887 169.284 52.2887C169.284 52.2887 173.822 48.8952 175.473 48.7562C176.266 48.6895 177.053 48.9406 177.661 49.4543C178.269 49.9681 178.648 50.7023 178.715 51.4955C178.782 52.2887 178.531 53.0759 178.017 53.684C177.503 54.292 176.769 54.6711 175.976 54.7377V54.7418Z" fill="#89B1B4"/>
<path d="M168.923 64.6546C167.318 65.0635 161.914 63.3728 161.914 63.3728C161.914 63.3728 165.812 59.2618 167.416 58.8448C168.187 58.645 169.005 58.7594 169.691 59.1629C170.377 59.5664 170.874 60.2259 171.074 60.9964C171.274 61.7668 171.159 62.585 170.756 63.2711C170.353 63.9572 169.693 64.4548 168.923 64.6546Z" fill="#89B1B4"/>
<path d="M169.066 39.4792C169.736 40.994 174.425 44.1811 174.425 44.1811C174.425 44.1811 175.222 38.5716 174.551 37.0568C174.217 36.348 173.619 35.7981 172.885 35.5244C172.151 35.2508 171.339 35.2751 170.623 35.5923C169.907 35.9094 169.343 36.4942 169.052 37.2216C168.761 37.9491 168.766 38.7615 169.066 39.4854V39.4792Z" fill="#89B1B4"/>
<path d="M160.963 51.1766C162.057 52.4216 167.481 54.0529 167.481 54.0529C167.481 54.0529 166.566 48.4618 165.472 47.2168C165.214 46.9144 164.898 46.6663 164.544 46.4869C164.189 46.3075 163.802 46.2004 163.405 46.1719C163.009 46.1433 162.611 46.1939 162.234 46.3206C161.857 46.4473 161.509 46.6477 161.21 46.9101C160.911 47.1724 160.668 47.4916 160.493 47.8489C160.319 48.2063 160.217 48.5947 160.194 48.9917C160.171 49.3886 160.228 49.7862 160.36 50.1613C160.492 50.5364 160.697 50.8815 160.963 51.1766Z" fill="#89B1B4"/>
<path d="M154.65 63.6304C155.516 65.041 160.587 67.5656 160.587 67.5656C160.587 67.5656 160.63 61.9009 159.77 60.4883C159.341 59.8361 158.676 59.3764 157.914 59.2067C157.153 59.037 156.355 59.1707 155.69 59.5794C155.026 59.9881 154.546 60.6397 154.354 61.3959C154.161 62.1522 154.271 62.9537 154.66 63.6304H154.65Z" fill="#89B1B4"/>
<path d="M148.698 19.5045C149.037 18.2596 149.446 17.0085 149.732 15.7471C149.389 17.0085 148.978 18.2636 148.698 19.5045Z" fill="url(#paint0_linear_66_2)"/>
<path d="M147.177 31.4963C147.148 31.4472 147.128 31.3981 147.105 31.3532C147.105 31.3327 147.085 31.3164 147.077 31.2959C147.032 31.3169 146.986 31.3354 146.94 31.3511C146.85 31.3859 146.758 31.4186 146.664 31.4452C146.57 31.4717 146.531 31.486 146.459 31.5024C146.4 31.5228 146.339 31.5386 146.277 31.5494L146.294 31.5862C146.369 31.5699 146.443 31.5556 146.519 31.5351L146.539 31.7886C146.625 31.7886 146.705 31.7763 146.782 31.7763C146.819 31.7743 146.856 31.7743 146.893 31.7763C147.052 31.7763 147.191 31.7763 147.301 31.7763C147.259 31.6843 147.214 31.5883 147.177 31.4963ZM188.669 97.5532C187.708 96.2592 185.791 82.3703 185.791 82.3703C185.791 82.3703 182.02 72.4944 183.048 68.553C184.076 64.6116 180.24 54.5272 180.24 54.5272C180.24 54.5272 177.705 53.4253 177.568 51.7899C177.568 51.7899 167.22 48.519 166.735 46.0659C166.343 44.0543 159.925 42.611 157.619 42.1552C156.916 39.3177 156.209 36.6704 155.688 35.225C155.547 34.7753 155.414 34.3869 155.291 34.0802C154.41 31.8315 151.688 31.6271 149.713 31.807C149.628 31.4237 149.469 31.0607 149.245 30.7378C149.213 30.6269 149.148 30.528 149.059 30.4537C149.017 30.4176 148.972 30.3848 148.924 30.3556C148.889 30.2893 148.842 30.2298 148.785 30.1797C148.729 30.1292 148.668 30.0853 148.601 30.0489C148.554 30.0232 148.505 30.0007 148.454 29.9815C148.336 29.9363 148.213 29.9028 148.088 29.8813C147.943 29.8513 147.795 29.8322 147.647 29.824C148.008 29.6662 148.329 29.431 148.589 29.1351C148.766 28.9274 148.897 28.6851 148.975 28.4237C149.04 28.2063 149.069 27.9799 149.061 27.7532C149.008 27.8466 148.947 27.9349 148.877 28.0169C148.963 27.1113 148.485 26.1913 148.211 25.2898C147.879 24.1162 147.818 22.8825 148.031 21.6817C148.305 19.8704 148.984 18.0387 149.444 16.1948C149.445 16.1846 149.445 16.1743 149.444 16.1641C149.685 15.2484 149.834 14.3109 149.889 13.3655C149.969 11.4582 149.48 9.55496 148.695 7.81732C147.998 6.27797 146.97 4.76316 145.396 4.13761C144.227 3.66538 142.917 3.74102 141.658 3.66333C138.833 3.48752 136.139 2.494 133.454 1.59043C130.768 0.686855 128.004 -0.134947 125.178 0.0224624C122.351 0.179872 119.442 1.54341 118.153 4.04561C117.744 4.82653 117.509 5.69535 117.02 6.42925C116.105 7.81323 114.465 8.50624 113.098 9.46092C111.731 10.4156 110.527 11.771 110.032 13.388C109.762 14.2592 109.724 15.1858 109.922 16.0762C109.966 16.2773 110.023 16.4753 110.093 16.6691C110.287 17.2092 110.59 17.7039 110.982 18.1226C111.278 18.432 111.619 18.6958 111.992 18.9055C112.461 19.1655 112.963 19.3608 113.484 19.4861C113.466 19.5474 113.447 19.6128 113.427 19.6762C113.394 19.7805 113.366 19.8806 113.335 19.9931C113.268 20.2445 113.204 20.5001 113.151 20.7576C113.149 20.776 113.149 20.7945 113.151 20.8128C112.9 21.9756 112.774 23.1619 112.775 24.3515C112.775 24.9141 112.803 25.4763 112.861 26.036C113.678 34.3317 120.526 40.8754 128.986 41.3007C129.276 41.315 129.568 41.3231 129.864 41.3231C129.999 41.3231 130.132 41.3231 130.273 41.3231C130.406 41.499 130.537 41.6788 130.662 41.8547C130.786 42.0305 130.901 42.2104 131.009 42.3862L130.713 42.0795L130.416 41.8076C130.336 41.9179 130.246 42.0212 130.149 42.1163C129.955 42.0483 129.758 41.9923 129.558 41.9487C128.71 41.7606 127.418 41.6911 125.717 42.2042C124.154 42.6724 122.243 43.6352 120.006 45.4649L109.11 52.0066L103.215 55.5923L101.092 60.7847C101.092 60.7847 99.4954 66.9544 97.7192 74.0235C97.6497 74.044 97.5823 74.0644 97.5148 74.0889C97.3709 74.0726 97.2263 74.0644 97.0815 74.0644C96.0509 74.062 95.0596 74.4591 94.3156 75.1723C93.5716 75.8855 93.1329 76.8594 93.0917 77.8893C89.5597 82.1823 89.3594 86.4753 90.1893 88.4459C90.2644 88.6306 90.359 88.8067 90.4713 88.9713C91.015 89.7563 92.0309 91.7802 93.061 93.9369C93.0345 94.1147 93.0181 94.264 93.0099 94.3764C93.0081 94.4132 93.0081 94.45 93.0099 94.4868C93.0099 94.4868 93.6231 103.749 91.5792 106.405C91.1315 106.984 91.199 107.744 91.5792 108.586C92.9486 111.616 98.363 115.662 98.363 115.662C98.363 115.662 104.857 115.627 108.474 115.232C108.464 115.596 108.456 115.958 108.448 116.312C108.366 119.885 108.366 122.88 108.366 122.88L108.231 126.627C108.231 126.627 107.005 134.524 106.392 136.701C106.005 138.067 106.451 150.711 106.839 160.006H170.819C171.571 154.507 170.511 137.799 170.511 137.799C170.511 137.799 169.503 133.479 169.466 129.714C169.464 129.71 169.463 129.705 169.463 129.701C169.463 129.696 169.464 129.691 169.466 129.687C169.466 129.358 169.466 129.037 169.478 128.722L169.942 128.706L170.776 128.677H170.852C170.852 128.677 170.872 128.6 170.919 128.473C171.03 128.157 171.18 127.857 171.367 127.58C171.723 127.054 172.279 126.539 173.115 126.504C173.576 126.486 174.292 126.112 175.099 125.56C175.105 125.561 175.11 125.561 175.116 125.56C177.288 124.09 180.16 121.377 180.857 120.932C181.816 120.318 186.406 116.23 186.406 116.23C186.406 116.23 187.091 115.363 187.821 114.318L187.847 114.282C188.755 112.973 189.72 111.409 189.483 110.917C189.074 110.034 189.756 107.922 189.756 107.922C191.888 104.019 189.63 98.8473 188.669 97.5532ZM149.145 34.6751C149.165 34.7362 149.177 34.7993 149.182 34.8632C149.131 34.7957 149.08 34.7242 149.029 34.6588L148.98 34.5934L148.945 34.5443L149.022 34.438C149.022 34.438 149.022 34.438 149.022 34.4523C149.076 34.5186 149.118 34.5941 149.145 34.6751ZM148.458 32.8639C148.236 32.9089 148.06 32.9498 147.945 32.9804C147.8 32.7228 147.661 32.4653 147.536 32.2036C147.864 32.3937 148.173 32.6148 148.458 32.8639ZM148.074 33.1869C148.073 33.1828 148.073 33.1787 148.074 33.1746L148.09 33.1869C148.174 33.2421 148.256 33.2952 148.332 33.3504C148.399 33.3995 148.46 33.4465 148.522 33.4956C148.481 33.5671 148.436 33.6407 148.391 33.7C148.319 33.5876 148.252 33.4792 148.186 33.3668C148.146 33.3218 148.109 33.2605 148.074 33.1869ZM146.848 30.6642C147.243 30.6253 147.64 30.6253 148.035 30.6642C148.09 30.6642 148.139 30.6745 148.189 30.6826C148.299 30.6998 148.408 30.7279 148.513 30.7665C148.755 31.1044 148.904 31.4999 148.945 31.9133L148.834 31.9297L148.726 31.9501C148.522 31.9849 148.317 32.0196 148.158 32.0523L147.953 32.0952C147.682 32.1545 147.524 32.1995 147.518 32.2015C147.492 32.1463 147.465 32.0952 147.436 32.0421C147.391 31.9542 147.344 31.8642 147.303 31.7763C147.263 31.6884 147.209 31.5883 147.167 31.4963C147.138 31.4472 147.117 31.3981 147.095 31.3532C147.095 31.3327 147.075 31.3164 147.066 31.2959C147.054 31.2742 147.044 31.2517 147.036 31.2285C146.911 30.975 146.797 30.7215 146.686 30.4721C146.674 30.4475 146.664 30.421 146.654 30.3964L146.809 30.3862V30.4394L146.848 30.6642ZM98.081 157.479C98.0646 154.435 97.8439 151.142 97.2307 148.051C96.9691 146.737 96.6993 145.422 96.4254 144.13C96.3559 143.807 96.2884 143.488 96.221 143.169L95.5914 143.253H95.5342C93.8173 135.156 92.0227 128.021 92.0227 128.021C92.0227 128.021 88.458 114.408 88.8709 113.323C88.9241 113.182 88.8566 112.802 88.7054 112.243C87.8428 109.148 84.2414 100.62 82.9823 97.7045C82.9823 97.6922 82.9721 97.6779 82.968 97.6677C82.7636 97.1791 82.6164 96.85 82.5715 96.7539L82.8678 92.4037L82.8842 92.142L82.923 91.586L82.9067 91.5717L82.923 91.3141C82.923 91.3141 79.8121 88.7628 74.5428 86.9209C74.3384 86.8473 74.1217 86.7758 73.9071 86.7063C74.1708 84.9461 74.5203 82.9591 74.9761 81.0231C75.019 80.8289 75.0661 80.6409 75.1151 80.4508C75.158 80.2606 75.2071 80.0766 75.2561 79.8906C75.3338 79.5881 75.4176 79.2896 75.5035 78.9952C75.7876 78.9053 76.0676 78.8051 76.3435 78.6988L76.4498 78.6579C79.8491 77.335 82.6539 74.825 84.345 71.5926C86.0361 68.3602 86.4989 64.6245 85.6476 61.0771C85.1622 59.0652 84.2659 57.1755 83.015 55.5268C82.921 55.4001 82.8208 55.2733 82.7207 55.1486C82.6205 55.0239 82.4999 54.8849 82.3875 54.7582C82.9782 53.4151 83.6752 52.1374 83.7324 50.8311C83.7426 50.6657 83.7426 50.4998 83.7324 50.3344V50.3139C83.6568 49.4737 83.2848 48.6233 82.4182 47.7299C81.1529 46.4195 79.3522 45.7552 77.5515 45.4362C75.7508 45.1173 73.9153 45.1092 72.1044 44.8945C69.1018 44.5347 66.1769 43.6087 63.1743 43.3245C59.476 42.982 55.7525 43.6164 52.3761 45.1644C50.1421 46.1865 47.8794 47.9732 47.7445 50.4243C47.6341 52.4502 49.0445 54.3923 48.6888 56.3936C48.3352 58.3602 46.3321 59.9077 46.5079 61.8968C46.5754 62.6737 46.9739 63.3687 47.4727 63.9881C47.6444 64.1926 47.8263 64.397 48.0143 64.6014C48.742 65.3721 49.5432 66.1121 49.9499 67.0832C49.9663 67.1241 49.9826 67.1649 49.9969 67.2058C50.3424 68.1646 50.187 69.3769 49.3327 69.9268C49.3374 69.9304 49.341 69.9354 49.3429 69.9411C49.3552 69.9574 49.3674 69.9697 49.3776 69.9861C49.3789 69.9828 49.3789 69.9791 49.3776 69.9758C49.6806 70.335 50.0889 70.5897 50.5447 70.7036L50.7185 70.7568C50.5774 70.9101 50.4446 71.0695 50.3097 71.2372L50.2218 71.3537C49.9965 71.6566 49.7917 71.9742 49.6086 72.3043C49.5044 72.4883 49.4042 72.6722 49.3204 72.8562C49.0402 73.417 48.8374 74.0133 48.7174 74.6286C48.4987 75.9819 48.8074 77.3925 48.4762 78.7172C48.0675 80.3526 46.7736 81.6078 46.0439 83.1267C44.6622 85.9887 45.4451 89.3475 45.723 92.5079C46.1012 96.8009 45.488 101.112 44.8768 105.377C44.5525 107.645 44.2282 109.914 43.9039 112.186C43.0863 117.888 42.2688 123.591 41.4512 129.293C41.1528 131.382 40.7992 133.586 39.4072 135.199H39.4215C39.4215 135.199 39.4215 135.211 39.4072 135.215C39.8251 135.398 40.2695 135.512 40.7235 135.554C42.5406 135.736 44.466 134.857 46.1012 133.897C47.3961 133.148 48.6225 132.287 49.766 131.323C49.5984 131.936 49.4185 132.605 49.2264 133.324C49.227 133.331 49.227 133.338 49.2264 133.345C46.9188 142.135 43.2069 158.25 43.2069 158.25C43.2069 158.25 42.8697 158.951 42.4323 159.996H100.072C99.3973 159.178 98.7698 158.395 98.2792 157.764L98.081 157.479ZM55.4032 76.1986C55.4175 76.1741 55.4277 76.1516 55.442 76.1291C55.442 76.1945 55.442 76.2579 55.442 76.3192C55.442 76.3806 55.442 76.4358 55.442 76.493C55.442 76.5503 55.442 76.5441 55.442 76.5727C55.442 76.6566 55.4236 76.7404 55.4093 76.8242C55.4093 76.8242 55.4093 76.8344 55.4093 76.8426L55.6137 76.9182L55.8508 77.0163C57.2516 77.5697 58.6701 78.0705 60.1064 78.5189C60.2535 78.5659 60.4027 78.6109 60.5519 78.6538L60.5826 78.9073C60.6194 79.1669 60.6541 79.4306 60.6868 79.6944C60.6868 79.6944 60.6868 79.7066 60.6868 79.7148C60.7788 80.4446 60.8687 81.1724 60.9485 81.8838C60.9485 81.8838 57.1958 80.4528 57.2428 82.6259C57.2406 82.6647 57.2406 82.7036 57.2428 82.7424C57.2386 82.7941 57.2386 82.8461 57.2428 82.8978C57.2775 84.5904 57.8069 85.5942 57.9132 86.1093C57.9068 86.1307 57.8956 86.1503 57.8805 86.1666C57.7898 86.3639 57.7586 86.5834 57.7905 86.7982C57.787 87.164 57.8157 87.5293 57.8764 87.8899C57.766 87.9574 57.6577 88.0248 57.5494 88.0943C57.4676 88.1454 57.3899 88.2027 57.3102 88.2599C56.8088 86.5203 56.1528 84.8291 55.3501 83.2064C54.788 82.0494 54.1564 80.8433 54.1625 79.5738C54.1625 79.492 54.1625 79.4082 54.1728 79.3243C54.1955 78.9564 54.2656 78.5929 54.3812 78.2429C54.4282 78.11 54.4793 77.9792 54.5366 77.8504C54.6701 77.5444 54.8196 77.2455 54.9842 76.955C55.0905 76.7629 55.2029 76.5727 55.3112 76.3806C55.346 76.3233 55.3787 76.2641 55.4114 76.2068L55.4032 76.1986ZM147.177 31.4963C147.148 31.4472 147.128 31.3981 147.105 31.3532C147.105 31.3327 147.085 31.3164 147.077 31.2959C147.032 31.3169 146.986 31.3354 146.94 31.3511C146.85 31.3859 146.758 31.4186 146.664 31.4452C146.57 31.4717 146.531 31.486 146.459 31.5024L146.277 31.5494L146.294 31.5862C146.369 31.5699 146.443 31.5556 146.519 31.5351L146.539 31.7886C146.625 31.7886 146.705 31.7763 146.782 31.7763H146.893C147.052 31.7763 147.191 31.7763 147.301 31.7763C147.259 31.6843 147.214 31.5883 147.177 31.4963Z" fill="url(#paint1_linear_66_2)"/>
<path d="M102.517 61.5227L101.29 62.0644C101.29 62.0644 93.2964 93.1253 93.2964 95.6357C93.2964 98.1461 110.247 112.115 110.247 112.115L112.892 94.2599C112.892 94.2599 109.094 53.3149 102.517 61.5227Z" fill="#E8F5FF"/>
<path d="M139.698 51.6427L132.616 47.9467C132.219 46.2553 131.515 44.6512 130.539 43.2141C129.503 41.7177 128.125 40.2479 126.408 39.4813C122.069 37.5351 144.763 27.3198 144.763 27.3198C145.121 28.547 145.542 29.7547 146.024 30.9382C147.193 33.8247 149.133 37.5576 151.633 38.6206C155.882 40.4298 139.698 51.6427 139.698 51.6427Z" fill="#FFC1C7"/>
<path opacity="0.1" d="M146.024 30.9382C145.055 34.3491 143.038 37.3691 140.26 39.5718C137.481 41.7745 134.081 43.0486 130.539 43.2141C129.503 41.7177 128.125 40.2479 126.408 39.4813C122.069 37.5351 144.763 27.3198 144.763 27.3198C145.121 28.547 145.542 29.7547 146.024 30.9382Z" fill="black"/>
<path d="M146.662 25.7805C146.663 29.1257 145.672 32.396 143.814 35.1778C141.956 37.9596 139.316 40.1279 136.226 41.4086C133.136 42.6892 129.736 43.0246 126.455 42.3723C123.175 41.72 120.161 40.1094 117.796 37.7441C115.431 35.3788 113.82 32.3652 113.168 29.0842C112.515 25.8033 112.85 22.4025 114.13 19.312C115.41 16.2215 117.578 13.58 120.359 11.7217C123.14 9.86344 126.41 8.87179 129.754 8.87219C131.978 8.86191 134.181 9.29222 136.236 10.1383C138.292 10.9843 140.16 12.2294 141.732 13.8015C143.304 15.3736 144.549 17.2416 145.395 19.2976C146.242 21.3537 146.672 23.5571 146.662 25.7805Z" fill="#FFC1C7"/>
<path d="M149.102 49.4717L144.491 60.2328L140.424 67.3755H127.404L123.606 57.61L125.145 47.4826H135.089L141.509 47.1208L143.678 46.3971L145.076 47.1903L149.102 49.4717Z" fill="#575A89"/>
<path opacity="0.1" d="M147.514 35.1269C147.514 35.1269 150.39 35.7402 147.814 37.852C145.239 39.9637 136.354 46.6792 136.354 46.6792C136.354 46.6792 139.475 49.4594 138.829 52.7159L149.17 46.9511L151.009 37.7273C151.009 37.7273 151.216 34.9552 147.514 35.1269Z" fill="black"/>
<path opacity="0.1" d="M138.388 46.6792L131.811 47.7647C131.811 47.7647 133.168 52.7834 132.489 54.2083C132.469 54.2526 132.452 54.2984 132.438 54.3453L129.754 61.6004L131.766 67.2978L138.727 57.8022L136.354 54.2083C136.354 54.2083 138.862 50.8843 140.354 49.7313C141.846 48.5783 138.388 46.6792 138.388 46.6792Z" fill="black"/>
<path d="M138.388 46.3991L131.811 47.4826C131.811 47.4826 133.168 52.5013 132.489 53.9262C132.469 53.9705 132.452 54.0162 132.438 54.0631L129.754 61.3183L131.766 67.0157L138.727 57.5139L136.354 53.92C136.354 53.92 138.862 50.596 140.354 49.443C141.846 48.2901 138.388 46.3991 138.388 46.3991Z" fill="#DCE6F2"/>
<path d="M147.79 34.5852C147.79 34.5852 150.666 35.1985 148.088 37.3102C145.511 39.422 136.354 46.6792 136.354 46.6792C136.354 46.6792 139.745 48.9177 139.101 52.1722L149.441 46.4093L151.281 37.1855C151.281 37.1855 151.485 34.4135 147.79 34.5852Z" fill="#575A89"/>
<path opacity="0.1" d="M130.991 43.854C130.991 43.854 131.619 45.0274 134.388 47.1433C134.388 47.1433 129.777 49.5964 131.541 53.0451L124.487 51.2053L123.402 47.8138L130.991 43.854Z" fill="black"/>
<path d="M130.719 43.5841C130.719 43.5841 131.346 44.7575 134.116 46.8734C134.116 46.8734 129.505 49.3142 131.269 52.7732L124.217 50.9333L123.132 47.5439L130.719 43.5841Z" fill="#575A89"/>
<path opacity="0.1" d="M149.102 49.4717L144.491 60.2328L140.432 67.3755H127.404L123.606 57.61L125.143 47.4826H127.908C127.864 49.8458 128.726 52.6219 128.671 53.6543C128.577 55.351 131.201 64.5053 131.201 64.5053C131.201 64.5053 136.693 55.6209 138.862 54.8297C140.225 54.333 143.113 50.1994 145.074 47.1902L149.102 49.4717Z" fill="black"/>
<path d="M167.267 106.1L166.799 106.689C166.799 106.689 170.19 123.712 169.252 127.578C169.092 128.274 169.001 128.985 168.98 129.7V129.73C168.814 133.664 170.002 138.768 170.002 138.768C170.002 138.768 170.95 153.814 170.411 160.002H106.921C106.549 150.852 106.149 138.997 106.513 137.683C107.126 135.514 108.352 127.645 108.352 127.645L108.487 123.916C108.487 123.916 108.487 120.312 108.598 116.297C108.645 114.492 108.714 112.597 108.814 110.917C108.943 108.803 109.123 107.022 109.37 106.147C109.522 105.484 109.61 104.808 109.632 104.128C109.632 104.064 109.632 103.999 109.644 103.933C109.644 103.729 109.664 103.508 109.673 103.281C109.673 103.218 109.673 103.155 109.673 103.077C109.711 101.76 109.697 100.199 109.654 98.5795C109.654 98.4916 109.654 98.4017 109.654 98.3117C109.619 97.0974 109.568 95.8586 109.511 94.6811C109.333 91.0013 109.102 87.8899 109.102 87.8899L101.305 62.0502L103.406 56.8741L109.237 53.3007L120.019 46.7896C125.278 42.4659 128.741 42.9852 130.061 43.4595C130.189 43.5032 130.315 43.5544 130.437 43.6128C130.478 43.6332 130.511 43.6496 130.541 43.668C130.583 43.6879 130.624 43.7111 130.662 43.7375C130.3 43.9115 129.986 44.1703 129.746 44.4918C129.476 44.8578 129.283 45.2752 129.18 45.7184C129.111 45.9931 129.063 46.2726 129.035 46.5545C129.008 46.8509 128.998 47.1576 128.998 47.4663C129.013 48.1432 129.071 48.8185 129.172 49.4881C129.172 49.5003 129.172 49.5167 129.172 49.533C129.239 50.0114 129.323 50.4795 129.405 50.9191C129.404 50.9265 129.404 50.9341 129.405 50.9416C129.499 51.4547 129.593 51.9289 129.656 52.3378C129.669 52.4114 129.679 52.4788 129.689 52.5422C129.734 52.8124 129.755 53.086 129.752 53.3599C129.775 54.0213 129.864 54.6788 130.018 55.3224C130.071 55.5923 130.133 55.8805 130.2 56.1811C130.292 56.5899 130.392 57.0356 130.501 57.4894C130.56 57.7388 130.623 57.9964 130.689 58.2519C130.713 58.3541 130.74 58.4563 130.764 58.5606L130.805 58.7221C131.24 60.4536 131.713 62.1769 132.003 63.2195C132.175 63.8328 132.283 64.211 132.283 64.211C132.283 64.211 135.361 59.2332 137.818 56.3998C137.855 56.3589 137.887 56.3201 137.922 56.2833C138.165 56.0032 138.404 55.7477 138.633 55.5228C139.134 55.024 139.584 54.6683 139.946 54.5374C140.023 54.5092 140.097 54.4743 140.168 54.4332C141.174 53.8628 142.797 51.792 144.316 49.623C144.465 49.4186 144.61 49.1957 144.757 48.9852C145.094 48.4986 145.421 48.01 145.73 47.5419C145.967 47.1842 146.194 46.8366 146.409 46.5055C147.431 44.915 148.15 43.7293 148.15 43.7293L149.569 43.6659L149.816 43.6537H149.981L156.422 43.3552C156.422 43.3552 156.7 43.4022 157.158 43.4942C157.182 43.4942 157.207 43.4942 157.233 43.5106C159.519 43.9644 165.867 45.4015 166.255 47.3947C166.73 49.8356 176.97 53.0921 176.97 53.0921C177.105 54.7276 179.613 55.8049 179.613 55.8049C179.613 55.8049 183.41 65.8423 182.394 69.7755C181.391 73.6597 185.007 83.2678 185.103 83.5377L184.41 84.4126L167.267 106.1Z" fill="#E8F5FF"/>
<path opacity="0.1" d="M147.512 34.4135C147.512 34.4135 153.781 32.635 155.206 36.2963C156.63 39.9576 159.817 54.7439 159.817 54.7439C159.817 54.7439 151.543 56.3037 149.374 54.7439C148.102 53.8182 146.528 53.4065 144.966 53.5909L140.287 56.778L138.905 56.3691C138.905 56.3691 146.39 45.24 148.017 41.4581C149.644 37.6762 150.194 35.9856 147.512 34.4135Z" fill="black"/>
<path d="M147.241 33.5958C147.241 33.5958 153.513 31.8172 154.944 35.4785C156.375 39.1399 159.555 53.9262 159.555 53.9262C159.555 53.9262 151.283 55.486 149.113 53.9262C147.841 53.0004 146.268 52.5886 144.706 52.7732L140.023 55.9602L138.642 55.5514C138.642 55.5514 146.127 44.4223 147.754 40.6404C149.381 36.8584 149.922 35.1719 147.241 33.5958Z" fill="#E8F5FF"/>
<path opacity="0.1" d="M105.162 92.5836C105.162 92.5836 109.84 93.7366 110.723 96.3819C111.606 99.0272 107.265 99.0947 107.265 99.0947C107.265 99.0947 104.62 94.4153 105.162 92.5836Z" fill="black"/>
<path opacity="0.1" d="M122.588 112.115C122.588 112.115 111.13 135.581 113.775 137.82C116.42 140.058 122.588 112.115 122.588 112.115Z" fill="black"/>
<path opacity="0.1" d="M138.388 94.8221C138.388 94.8221 147.543 117.616 145.712 121.136C143.88 124.656 149.644 121.136 149.644 121.136L138.388 94.8221Z" fill="black"/>
<path d="M151.136 117.338C151.136 117.338 120.215 118.83 129.235 128.461C138.255 138.091 156.765 128.87 156.765 128.87L151.136 117.338Z" fill="#FFC1C7"/>
<path opacity="0.1" d="M146.662 25.7804C146.665 27.9985 146.229 30.1953 145.38 32.2445C145.096 32.2772 144.812 32.2976 144.538 32.3099C144.129 31.4124 144.348 30.376 144.356 29.3886C144.364 28.4012 144.001 27.2401 143.05 26.9743C141.155 26.4407 139.847 29.9835 137.979 29.3436C136.548 28.8571 136.922 26.6861 136.099 25.4329C135.447 24.4414 134.141 24.1614 133.125 23.5399C130.964 22.2132 131.03 20.0912 130.026 18.0837C128.975 15.9801 126.756 16.6016 124.828 17.8425C123.365 18.7869 122.102 20.0524 120.536 20.8047C119.181 21.4588 117.658 21.696 116.156 21.7307C115.231 21.7666 114.306 21.6688 113.409 21.4404C114.464 17.4733 116.926 14.0253 120.335 11.7396C123.744 9.45391 127.868 8.48645 131.938 9.01767C136.008 9.54889 139.746 11.5425 142.455 14.6268C145.163 17.711 146.658 21.6753 146.66 25.7804H146.662Z" fill="black"/>
<path d="M124.835 17.3008C123.369 18.2452 122.108 19.5086 120.542 20.265C119.187 20.9171 117.664 21.1543 116.162 21.189C114.323 21.2299 112.342 20.9069 111.085 19.5781C109.93 18.3515 109.654 16.4647 110.143 14.8558C110.631 13.247 111.802 11.9121 113.178 10.9451C114.553 9.97816 116.15 9.30968 117.061 7.9257C117.544 7.19384 117.777 6.33115 118.177 5.55228C119.459 3.0603 122.341 1.71107 125.127 1.54344C127.913 1.37581 130.674 2.20579 133.327 3.10527C135.98 4.00476 138.654 4.99419 141.454 5.18022C142.701 5.25791 143.997 5.18022 145.154 5.65245C146.709 6.28414 147.729 7.79486 148.424 9.33216C149.203 11.0657 149.687 12.9587 149.605 14.8517C149.434 18.8933 146.764 22.8592 147.937 26.7311C148.248 27.7634 148.831 28.8224 148.52 29.8547C148.066 31.3614 146.122 31.7048 144.551 31.7764C144.142 30.8789 144.36 29.8404 144.369 28.8551C144.377 27.8697 144.013 26.7065 143.065 26.4408C141.168 25.9113 139.86 29.4479 137.996 28.8101C136.575 28.3215 136.943 26.1525 136.117 24.8994C135.465 23.9059 134.157 23.6278 133.143 23.0064C130.983 21.6796 131.048 19.5577 130.045 17.5502C128.986 15.4364 126.764 16.0579 124.835 17.3008Z" fill="#99607E"/>
<path d="M94.8518 95.092L93.2923 95.6357C93.2923 95.6357 93.9055 104.86 91.8615 107.505C89.8176 110.15 98.5739 116.727 98.5739 116.727C98.5739 116.727 110.576 116.659 110.915 115.704C111.255 114.75 110.302 98.6143 110.302 98.6143C110.302 98.6143 103.86 96.1039 104.401 92.1032C104.401 92.1032 102.435 101.529 99.5202 101.123C96.6055 100.716 93.2964 98.281 94.8518 95.092Z" fill="#E8F5FF"/>
<path opacity="0.1" d="M100.053 103.976C102.326 103.976 104.168 102.291 104.168 100.213C104.168 98.1343 102.326 96.4493 100.053 96.4493C97.7811 96.4493 95.939 98.1343 95.939 100.213C95.939 102.291 97.7811 103.976 100.053 103.976Z" fill="black"/>
<path d="M104.552 95.3638C104.552 95.3638 103.735 70.4072 96.6176 75.9676C89.5005 81.5281 89.431 88.1782 90.7862 90.1427C92.1413 92.1073 96.4868 101.942 96.4868 101.942C97.1665 102.336 97.9299 102.564 98.7144 102.606C99.4989 102.648 100.282 102.503 101 102.184C101.718 101.865 102.35 101.38 102.845 100.77C103.339 100.159 103.682 99.4401 103.845 98.6715L104.552 95.3638Z" fill="#FFC1C7"/>
<path opacity="0.1" d="M148.949 32.1484C148.916 32.0388 148.852 31.9409 148.765 31.8663C148.413 31.5453 147.657 31.4329 146.517 31.531L146.564 32.0707C148.084 31.9399 148.385 32.2424 148.424 32.2935V32.3447L148.471 32.4121C148.66 32.667 148.795 32.9586 148.865 33.2684C148.935 33.5782 148.94 33.8993 148.879 34.2111C148.546 35.8772 146.5 37.2039 146.48 37.2182L146.431 37.2468L146.4 37.2939C145.517 38.6043 140.524 42.3024 139.218 43.2591L139.103 43.1283C138.519 43.6352 133.38 48.1347 133.102 49.858C132.922 50.9395 131.704 51.3585 131.263 51.4751C130.797 51.1214 129.284 49.9173 128.497 48.5681C127.759 47.2986 130.729 44.8209 130.991 43.854L130.582 43.4349C130.539 43.5903 126.725 47.1555 127.786 48.9769C128.636 50.4386 130.189 51.6897 130.733 52.1027C130.559 53.6808 129.478 62.9476 127.816 65.1432C125.752 67.8723 124.017 81.6262 124.209 86.4282C124.379 90.6947 123.265 98.7532 119.545 102.214C118.901 102.84 118.124 103.312 117.272 103.595C116.42 103.878 115.515 103.965 114.625 103.85H114.58H114.535C114.482 103.85 109.086 104.402 104.552 100.579C100.842 97.4571 98.7412 92.3628 98.3038 85.4327H98.2139L98.1771 83.415C99.183 83.2579 100.089 82.7171 100.704 81.9061C101.32 81.0951 101.597 80.077 101.478 79.0659C101.359 78.0547 100.852 77.1291 100.065 76.4835C99.2776 75.838 98.2708 75.5228 97.256 75.6041C96.2413 75.6854 95.2975 76.157 94.6231 76.9197C93.9486 77.6824 93.596 78.6769 93.6393 79.6941C93.6826 80.7114 94.1184 81.6723 94.8552 82.3749C95.5921 83.0775 96.5725 83.4672 97.5905 83.462H97.6354L97.6722 85.4674L97.4924 85.4797C97.942 92.6347 100.15 97.9273 104.033 101.196C106.985 103.643 110.755 104.877 114.582 104.649C114.853 104.679 115.126 104.694 115.399 104.694C117.153 104.703 118.841 104.024 120.101 102.803C124.019 99.1539 125.21 90.7989 125.024 86.3874C124.82 81.2991 126.641 68.0399 128.468 65.6256C130.259 63.2563 131.344 54.0243 131.534 52.2355C132.182 52.0536 133.648 51.4792 133.897 49.9868C134.077 48.9074 137.509 45.5814 139.62 43.7395L139.557 43.6659C140.693 42.8359 144.227 40.2192 145.979 38.5388C146.523 38.0175 147.062 37.4962 147.626 36.9995C148.305 36.3985 149.168 35.4438 149.394 34.3153C149.472 33.9428 149.472 33.5585 149.396 33.1858C149.319 32.8132 149.167 32.4601 148.949 32.1484Z" fill="black"/>
<path d="M130.664 51.9739C130.578 51.9146 128.542 50.457 127.523 48.703C126.464 46.8816 130.278 43.3184 130.319 43.163L130.727 43.5821C130.468 44.547 127.498 47.0267 128.236 48.2942C129.166 49.8949 131.124 51.2952 131.144 51.3095L130.664 51.9739Z" fill="#353146"/>
<path d="M138.952 43.6557L138.633 43.2162C138.699 43.1692 145.119 38.5246 146.131 37.022L146.163 36.977L146.21 36.9464C146.231 36.9321 148.277 35.6074 148.61 33.9392C148.671 33.6278 148.667 33.3069 148.596 32.9974C148.526 32.6878 148.391 32.3965 148.201 32.1423L148.154 32.0728V32.0237C148.113 31.9706 147.813 31.6701 146.292 31.8009L146.245 31.2592C147.388 31.1611 148.142 31.2735 148.493 31.5944C148.581 31.6698 148.645 31.7683 148.679 31.8786C148.9 32.1894 149.055 32.5422 149.135 32.9153C149.214 33.2883 149.216 33.6737 149.141 34.0476C148.914 35.1781 148.054 36.1327 147.373 36.7317C146.811 37.2285 146.27 37.7539 145.728 38.2711C143.674 40.2397 139.177 43.4942 138.952 43.6557Z" fill="#E8F5FF"/>
<path d="M97.9136 82.7033L97.3721 82.7132L97.4324 86.006L97.974 85.9961L97.9136 82.7033Z" fill="#E8F5FF"/>
<path d="M97.3271 83.2024C99.5114 83.2024 101.282 81.4314 101.282 79.2467C101.282 77.062 99.5114 75.291 97.3271 75.291C95.1428 75.291 93.3721 77.062 93.3721 79.2467C93.3721 81.4314 95.1428 83.2024 97.3271 83.2024Z" fill="#89B1B4"/>
<path d="M97.3271 82.5319C99.1412 82.5319 100.612 81.0611 100.612 79.2467C100.612 77.4324 99.1412 75.9615 97.3271 75.9615C95.5131 75.9615 94.0425 77.4324 94.0425 79.2467C94.0425 81.0611 95.5131 82.5319 97.3271 82.5319Z" fill="#E8F5FF"/>
<path d="M115.142 104.43C114.869 104.431 114.596 104.416 114.324 104.387C110.498 104.613 106.728 103.379 103.776 100.934C99.892 97.6636 97.6886 92.3771 97.2349 85.216L98.0524 85.1649C98.4899 92.095 100.591 97.1914 104.303 100.311C108.836 104.124 114.23 103.582 114.283 103.582H114.328H114.373C115.264 103.697 116.169 103.609 117.021 103.326C117.873 103.043 118.65 102.571 119.295 101.946C123.013 98.4854 124.127 90.4269 123.958 86.1604C123.753 81.3543 125.488 67.6004 127.555 64.8733C129.364 62.4835 130.486 51.7122 130.498 51.6038L130.529 51.2972L130.831 51.2441C130.85 51.2441 132.616 50.9088 132.836 49.5882C133.123 47.8669 138.253 43.3674 138.835 42.8584L139.369 43.4717C137.249 45.3115 133.818 48.6396 133.646 49.7211C133.396 51.2175 131.931 51.7899 131.285 51.9698C131.081 53.7606 130.004 62.9905 128.219 65.3598C126.392 67.7741 124.571 81.0334 124.775 86.1216C124.951 90.5332 123.772 98.8902 119.853 102.537C118.592 103.761 116.9 104.441 115.142 104.43Z" fill="#353146"/>
<g opacity="0.1">
<path d="M148.403 20.9478C148.739 19.7089 149.143 18.4619 149.425 17.2067C149.088 18.468 148.681 19.7089 148.403 20.9478Z" fill="black"/>
<path d="M144.984 30.6827C144.575 29.7852 144.794 28.7467 144.802 27.7614C144.81 26.776 144.446 25.6231 143.498 25.3471C141.601 24.8176 140.293 28.3563 138.429 27.7164C136.998 27.2278 137.376 25.0588 136.55 23.8057C135.898 22.8122 134.592 22.5341 133.578 21.9127C131.416 20.5859 131.481 18.464 130.48 16.4565C129.427 14.3509 127.21 14.9723 125.28 16.2153C123.814 17.1597 122.553 18.4251 120.988 19.1795C119.633 19.8316 118.11 20.0687 116.608 20.1035C114.778 20.1464 112.787 19.8214 111.53 18.4926C110.561 17.4704 110.212 15.972 110.412 14.5676C110.378 14.6636 110.347 14.7597 110.316 14.8558C109.826 16.4647 110.112 18.3556 111.258 19.5781C112.516 20.9069 114.506 21.2299 116.336 21.189C117.84 21.1542 119.361 20.9171 120.718 20.265C122.288 19.5086 123.549 18.2452 125.01 17.3008C126.94 16.0578 129.159 15.4364 130.21 17.542C131.212 19.5495 131.148 21.6715 133.309 22.9982C134.331 23.6115 135.629 23.8977 136.283 24.8912C137.1 26.1484 136.738 28.3133 138.161 28.8019C140.023 29.4397 141.331 25.9031 143.228 26.4326C144.176 26.6983 144.542 27.8636 144.532 28.8469C144.522 29.8302 144.309 30.8707 144.714 31.7682C146.286 31.6966 148.23 31.3593 148.685 29.8465C148.748 29.6294 148.777 29.404 148.771 29.1781C148.107 30.3249 146.398 30.6193 144.984 30.6827Z" fill="black"/>
</g>
<path opacity="0.1" d="M181.924 81.0538L184.297 83.5642C184.297 83.5642 186.196 97.3979 187.145 98.6919C188.093 99.9859 190.333 105.133 188.23 108.999C188.23 108.999 187.551 111.103 187.958 111.984C188.365 112.865 184.908 117.274 184.908 117.274C184.908 117.274 180.365 121.343 179.414 121.954C178.464 122.565 173.448 127.447 171.754 127.514C170.059 127.582 169.505 129.685 169.505 129.685L159.944 130.025C159.944 130.025 154.662 129.749 153.513 130.495C153.513 130.495 154.126 122.424 148.226 117.133L155.751 114.421C155.751 114.421 158.601 113.194 159.482 111.912C160.036 111.126 160.822 110.534 161.73 110.218C161.73 110.218 163.831 108.725 163.899 107.912C163.966 107.098 166.468 106.1 166.468 106.1L165.051 94.0084L165.797 73.9336C165.797 73.9336 168.17 57.1132 173.188 58.0638C178.206 59.0144 181.924 81.0538 181.924 81.0538Z" fill="black"/>
<path d="M182.742 81.0538L185.115 83.5642C185.115 83.5642 187.014 97.3979 187.962 98.6919C188.91 99.9859 191.15 105.133 189.047 108.999C189.047 108.999 188.371 111.103 188.777 111.984C189.184 112.865 185.726 117.274 185.726 117.274C185.726 117.274 181.182 121.343 180.232 121.954C179.281 122.565 174.265 127.447 172.571 127.514C170.876 127.582 170.323 129.685 170.323 129.685L160.761 130.025C160.761 130.025 155.475 129.749 154.331 130.495C154.331 130.495 154.944 122.424 149.043 117.133L156.569 114.421C156.569 114.421 159.418 113.194 160.299 111.912C160.853 111.126 161.639 110.534 162.547 110.218C162.547 110.218 164.649 108.725 164.716 107.912C164.783 107.098 167.285 106.1 167.285 106.1L165.869 94.0084L166.615 73.9336C166.615 73.9336 168.988 57.1132 174.006 58.0638C179.024 59.0144 182.742 81.0538 182.742 81.0538Z" fill="#E8F5FF"/>
<path opacity="0.1" d="M173.92 101.333C173.92 101.333 180.904 99.4933 182.735 101.742C184.567 103.991 173.92 101.333 173.92 101.333Z" fill="black"/>
<path opacity="0.1" d="M172.293 104.418C174.666 106.08 181.989 106.147 181.989 106.147L172.293 104.418Z" fill="black"/>
<path opacity="0.1" d="M175.886 112.726C176.091 112.793 180.92 117.949 182.948 116.389C184.976 114.83 175.886 112.726 175.886 112.726Z" fill="black"/>
<path opacity="0.1" d="M110.839 69.4566C110.839 69.4566 112.258 79.2242 111.559 83.2024C110.86 87.1805 113.411 92.1093 113.411 92.1093L110.839 69.4566Z" fill="black"/>
<path d="M79.436 73.4287C77.8008 74.7104 76.6072 77.7441 75.7426 81.0784C74.2341 86.8944 73.7415 93.6385 73.7415 93.6385C73.7415 93.6385 60.7216 90.6538 61.67 89.2984C62.2668 88.446 61.4656 82.0228 60.7972 77.3659C60.3986 74.6143 60.043 72.4781 60.043 72.4781C60.043 72.4781 83.9123 69.9002 79.436 73.4287Z" fill="#FFCCD0"/>
<path opacity="0.1" d="M79.436 73.1568C77.8008 74.4406 76.6072 77.4723 75.7426 80.8065C73.1485 81.5943 70.3896 81.6654 67.7584 81.0122C65.1272 80.3589 62.7218 79.0058 60.7972 77.0961C60.3986 74.3425 60.043 72.2062 60.043 72.2062C60.043 72.2062 83.9123 69.6304 79.436 73.1568Z" fill="black"/>
<path d="M86.4347 65.8505C86.436 69.4061 85.1796 72.8477 82.8879 75.5659C80.5961 78.2842 77.4168 80.1039 73.9126 80.7031C70.4083 81.3023 66.8051 80.6422 63.7406 78.8398C60.6762 77.0373 58.3481 74.2087 57.1683 70.8545C55.9886 67.5004 56.0333 63.8369 57.2945 60.5125C58.5558 57.1882 60.9522 54.4172 64.0598 52.6901C67.1673 50.963 70.7855 50.3911 74.2741 51.0757C77.7627 51.7602 80.8967 53.657 83.1214 56.4304C85.2653 59.102 86.434 62.4249 86.4347 65.8505Z" fill="#FFCCD0"/>
<path opacity="0.1" d="M98.3061 160.002H94.0138L93.6521 152.42L93.2739 144.572C93.2739 144.572 94.2489 144.427 95.8023 144.21L96.4298 144.126H96.4809C96.8202 145.719 97.1554 147.354 97.4783 148.987C98.0159 151.887 98.2956 154.829 98.3143 157.778C98.3143 157.982 98.3143 158.187 98.3143 158.379C98.3266 158.925 98.3143 159.471 98.3061 160.002Z" fill="black"/>
<path d="M97.4824 160.002H43.6528C43.8858 159.473 44.0412 159.152 44.0412 159.152C44.0412 159.152 48.3478 140.307 50.5369 132.335C50.5375 132.328 50.5375 132.321 50.5369 132.314C50.8104 131.231 51.1406 130.163 51.5261 129.115C51.551 129.044 51.5832 128.975 51.6222 128.911C52.7055 127.148 54.0627 125.249 52.1639 122.536C50.265 119.824 50.9375 107.887 50.9375 107.887C50.9375 107.887 53.2431 97.7127 55.6835 92.2872C56.0539 91.4468 56.5796 90.6839 57.2329 90.0385C57.4453 89.8306 57.672 89.638 57.9115 89.462C58.0935 89.3252 58.2832 89.1989 58.4797 89.0838L58.5185 89.0593C59.5437 88.4779 60.6822 88.1244 61.8563 88.0228C62.6903 87.9356 63.5322 87.959 64.3601 88.0923C68.3172 88.6729 71.4854 89.6439 74.0035 90.7499C80.8283 93.7488 82.8947 97.7679 82.9356 97.8517L82.9519 97.8865C83.2258 98.5263 87.232 107.881 88.675 112.246C89.049 113.382 89.2534 114.181 89.1717 114.4C88.7629 115.484 92.2908 129.048 92.2908 129.048C92.2908 129.048 93.9259 135.589 95.5611 143.257C95.6326 143.576 95.7001 143.895 95.7655 144.218C96.0578 145.61 96.348 147.029 96.628 148.446C97.1706 151.365 97.4504 154.328 97.464 157.297C97.494 158.223 97.5001 159.124 97.4824 160.002Z" fill="#FF748E"/>
<path opacity="0.1" d="M61.5355 83.3577C61.5355 83.3577 57.8216 81.9267 57.8666 84.0978C57.9116 86.2688 58.7721 87.3073 58.5002 87.6242C58.2284 87.941 58.6351 89.8402 58.6351 89.8402C58.6351 89.8402 63.6531 89.8402 65.9586 90.8787C68.2642 91.9172 76.763 93.9982 77.8483 94.632C78.9337 95.2657 82.9582 98.1073 82.9582 98.1073L83.32 92.7267C83.32 92.7267 79.1605 89.2903 72.3358 87.5281C65.511 85.7659 61.5355 83.3577 61.5355 83.3577Z" fill="black"/>
<path d="M61.5355 86.0858C61.5355 86.0858 57.8216 84.6548 57.8666 86.8259C57.9116 88.9969 58.7721 90.0354 58.5002 90.3523C58.2284 90.6691 58.6351 92.5683 58.6351 92.5683C58.6351 92.5683 63.6531 92.5683 65.9586 93.6088C68.2642 94.6493 76.763 96.7284 77.8483 97.3601C78.9337 97.9917 82.9582 100.835 82.9582 100.835L83.3241 95.4711C83.3241 95.4711 79.1646 92.0347 72.3399 90.2725C65.5151 88.5104 61.5355 86.0858 61.5355 86.0858Z" fill="#FF748E"/>
<path opacity="0.1" d="M72.7466 96.0344C72.7466 96.0344 79.8432 103.719 79.4814 105.847C79.1196 107.975 72.7466 96.0344 72.7466 96.0344Z" fill="black"/>
<path opacity="0.1" d="M61.2184 123.794C61.2184 123.794 56.0165 128.588 54.4836 128.859C52.9506 129.131 55.6588 130.035 57.4207 129.313C59.1826 128.592 62.9394 126.693 62.9394 126.693L61.2184 123.794Z" fill="black"/>
<path d="M99.5956 160.002H87.4647C85.7683 158.53 84.1637 157.167 83.1418 156.347C81.5066 155.034 80.3273 153.103 79.5751 151.549C79.4054 151.195 79.2583 150.864 79.1336 150.564C78.9103 150.046 78.7138 149.517 78.5449 148.979L87.5281 143.644C88.0246 144.066 88.491 144.522 88.9241 145.009L89.0324 145.134C89.5312 145.723 89.9706 146.391 90.0095 146.939C90.0544 147.577 91.8286 150.044 93.6416 152.414C95.4811 154.824 97.3656 157.128 97.4903 157.283C97.4903 157.283 97.801 157.706 98.3079 158.356C98.6656 158.827 99.1071 159.391 99.5956 160.002Z" fill="#FFCCD0"/>
<path opacity="0.1" d="M83.1213 56.4304C82.69 57.4035 82.3037 58.4134 82.2465 59.4969C82.085 62.6246 82.3466 69.6181 78.8842 71.1881C77.1693 71.9609 75.3338 70.2641 73.4534 70.2232C72.1003 70.1946 70.8596 71.0532 70.0338 72.1264C69.2081 73.1997 68.6951 74.4733 68.0962 75.6876C67.551 76.7898 66.9231 77.849 66.2178 78.8562C66.007 79.1645 65.7747 79.4575 65.5228 79.7332C63.4116 78.8422 61.5315 77.4809 60.0259 75.7531C58.5203 74.0253 57.429 71.9765 56.8349 69.763C56.2409 67.5494 56.16 65.2294 56.5982 62.9798C57.0364 60.7302 57.9823 58.6103 59.3638 56.7817C60.7453 54.9531 62.5258 53.464 64.5699 52.4279C66.6139 51.3918 68.8674 50.8361 71.1587 50.803C73.45 50.7699 75.7186 51.2603 77.7917 52.237C79.8648 53.2136 81.6876 54.6507 83.1213 56.4386V56.4304Z" fill="black"/>
<path d="M81.9749 58.9449C81.8114 62.0727 82.0751 69.0662 78.6105 70.6341C76.8957 71.4069 75.0602 69.7122 73.1798 69.6713C71.8267 69.6406 70.588 70.5012 69.7602 71.5724C68.9324 72.6437 68.4235 73.9193 67.8226 75.1356C67.2772 76.2377 66.6493 77.297 65.9442 78.3043C65.5231 78.9012 65.0571 79.5002 64.4092 79.8354C63.2809 80.4242 61.9135 80.093 60.7035 79.7148C59.1337 79.2201 57.5871 78.6627 56.0637 78.0426C56.0987 77.8126 56.1164 77.5802 56.1168 77.3476C56.0719 77.4334 56.0228 77.5131 55.9738 77.599L55.8777 77.7666C55.704 78.0733 55.5343 78.3799 55.379 78.6947C55.3197 78.8153 55.2625 78.9401 55.2114 79.0648C55.0058 79.5288 54.8767 80.0231 54.8291 80.5285C54.7249 81.892 55.3974 83.186 55.9942 84.4126C58.2896 89.1574 59.7081 94.7056 57.9809 99.6834C57.2328 101.848 55.937 103.772 54.9906 105.863C53.3363 109.567 52.8494 113.687 53.5946 117.675C54.0667 120.153 55.0131 122.606 54.7801 125.118C54.3713 129.442 50.6431 132.66 46.9088 134.872C44.8914 136.061 42.4223 137.12 40.2803 136.18C41.6456 134.585 41.9972 132.38 42.2915 130.299C43.0968 124.622 43.9042 118.943 44.7136 113.262C45.0366 111.001 45.3588 108.74 45.6804 106.479C46.2813 102.231 46.8904 97.9355 46.5143 93.6609C46.2404 90.5107 45.4678 87.1663 46.8332 84.3145C47.5547 82.8037 48.8404 81.5526 49.241 79.9254C49.57 78.6027 49.2635 77.1963 49.4801 75.8491C49.5987 75.2362 49.7995 74.642 50.0769 74.0828C50.4303 73.324 50.8916 72.6203 51.4464 71.9936C50.8986 71.8341 50.3876 71.6154 50.0769 71.1575C50.9558 70.5851 51.0887 69.2951 50.6901 68.3261C50.2916 67.3571 49.4944 66.6191 48.777 65.8546C48.0596 65.09 47.3687 64.1987 47.2788 63.1561C47.105 61.1711 49.0877 59.6338 49.4372 57.6754C49.7908 55.6822 48.3927 53.7442 48.5051 51.7265C48.636 49.2877 50.8761 47.5153 53.0877 46.487C56.425 44.9419 60.1117 44.3071 63.7735 44.6472C66.7536 44.9293 69.6376 45.8513 72.6095 46.209C74.402 46.4134 76.2191 46.4339 77.9994 46.7487C79.7797 47.0635 81.5641 47.7279 82.817 49.0342C86.12 52.4788 82.1629 55.3143 81.9749 58.9449Z" fill="#FFE0D0"/>
<path opacity="0.1" d="M79.2114 151.551C78.1689 151.099 76.2722 151.369 73.0161 150.378C69.7601 149.386 69.1326 144.905 69.1326 144.905V144.891C69.0938 144.788 68.7913 144.122 66.7432 141.787C64.4806 139.21 59.5894 126.19 59.5894 126.19C59.5894 126.19 55.2521 121.531 55.3891 119.813C55.526 118.096 54.6185 113.527 54.7084 108.417C54.7984 103.306 64.4724 99.9164 64.4724 99.9164C83.099 96.6149 78.7126 118.092 78.2159 119.719C77.7193 121.347 80.2967 125.742 80.2967 125.742C79.9329 127.655 81.7888 130.617 81.7888 130.617C81.7888 130.617 82.2384 133.238 82.3304 134.234C82.3355 134.28 82.3458 134.325 82.3611 134.369C82.6595 135.307 85.0918 136.158 86.0811 136.675C87.1215 137.218 90.4674 141.965 90.4674 141.965C91.1889 145.451 80.2497 152.009 79.2114 151.551Z" fill="black"/>
<path d="M79.7533 150.733C78.7129 150.279 76.8141 150.551 73.5601 149.558C70.3061 148.564 69.6766 144.087 69.6766 144.087V144.073C69.6398 143.969 69.3352 143.304 67.2872 140.97C65.0245 138.392 60.1334 125.37 60.1334 125.37C60.1334 125.37 55.7961 120.713 55.931 118.996C56.0659 117.279 55.1625 112.71 55.2524 107.603C55.3423 102.496 65.0102 99.1089 65.0102 99.1089C83.6368 95.8074 79.2505 117.285 78.7538 118.912C78.2571 120.539 80.8345 124.934 80.8345 124.934C80.4707 126.848 82.3266 129.81 82.3266 129.81C82.3266 129.81 82.7763 132.431 82.8703 133.426C82.8737 133.472 82.8834 133.518 82.8989 133.561C83.1973 134.5 85.6297 135.35 86.621 135.867C87.6593 136.409 91.0073 141.158 91.0073 141.158C91.7329 144.637 80.7937 151.195 79.7533 150.733Z" fill="#FF748E"/>
<path opacity="0.1" d="M65.3779 110.322C65.3779 110.322 73.5149 118.908 75.6386 118.908C77.7622 118.908 65.3779 110.322 65.3779 110.322Z" fill="black"/>
<path d="M79.753 150.733C78.7126 150.279 76.8138 150.551 73.5598 149.558C70.3058 148.564 69.6763 144.087 69.6763 144.087V144.073C71.8326 142.642 77.2941 138.6 79.4464 137.122C80.9609 136.086 82.1975 134.563 82.9211 133.553C83.2195 134.491 85.6518 135.342 86.6431 135.859C87.6815 136.401 91.0295 141.15 91.0295 141.15C91.7326 144.637 80.7933 151.195 79.753 150.733Z" fill="#FF748E"/>
<g opacity="0.1">
<path d="M50.0894 72.1799C50.0996 72.1963 50.1139 72.2106 50.1261 72.2269C50.1875 72.1493 50.2508 72.0716 50.3162 71.998C50.2466 72.0657 50.1706 72.1267 50.0894 72.1799Z" fill="black"/>
<path d="M54.8312 81.5509C54.917 80.4164 55.5241 79.4167 56.0923 78.4191C55.7203 78.276 55.3483 78.1309 54.9804 77.9796C55.0154 77.7502 55.0332 77.5186 55.0335 77.2866C54.4592 78.3087 53.8337 79.3145 53.7458 80.4654C53.6416 81.831 54.3141 83.123 54.9109 84.3496C57.2083 89.0923 58.6248 94.6405 56.8976 99.6204C56.1475 101.783 54.8537 103.709 53.9073 105.8C52.2536 109.504 51.7674 113.623 52.5133 117.61C52.9814 120.09 53.9298 122.541 53.6968 125.053C53.288 129.377 49.5619 132.595 45.8255 134.805C44.2987 135.708 42.5143 136.536 40.8076 136.477C40.6496 136.731 40.4734 136.974 40.2803 137.202C42.4244 138.149 44.8914 137.084 46.9088 135.89C50.6472 133.682 54.3815 130.473 54.7903 126.141C55.0233 123.628 54.0749 121.177 53.6048 118.698C52.8586 114.711 53.3434 110.592 54.9947 106.888C55.9349 104.799 57.2431 102.871 57.985 100.708C59.7121 95.7281 58.2936 90.1799 55.9983 85.4371C55.4035 84.2024 54.7269 82.9165 54.8312 81.5509Z" fill="black"/>
<path d="M82.8127 50.0587C82.6117 49.8524 82.3958 49.6611 82.1668 49.4863C84.6441 52.6999 81.0672 55.4311 80.8893 58.89C80.7299 62.0178 80.9915 69.0133 77.527 70.5793C75.8142 71.354 73.9767 69.6573 72.0983 69.6164C70.7432 69.5878 69.5045 70.4484 68.6767 71.5196C67.8489 72.5908 67.34 73.8665 66.7411 75.0808C66.1948 76.1827 65.5662 77.2419 64.8607 78.2494C64.4519 78.8484 63.9736 79.4453 63.3236 79.7826C62.1994 80.3693 60.832 80.0402 59.62 79.66C58.4413 79.2893 57.2735 78.8804 56.1166 78.4334C56.1142 78.6463 56.0965 78.8588 56.0635 79.0692C57.5883 79.6906 59.1355 80.248 60.7053 80.7414C61.9153 81.1216 63.2827 81.4508 64.4089 80.864C65.0569 80.5267 65.527 79.9278 65.946 79.3288C66.652 78.3228 67.28 77.2641 67.8244 76.1622C68.4253 74.9479 68.9322 73.6702 69.7621 72.599C70.5919 71.5278 71.8285 70.6692 73.1816 70.6978C75.062 70.7387 76.8995 72.4355 78.6124 71.6607C82.0769 70.0948 81.8132 63.0992 81.9747 59.9715C82.1627 56.3347 86.1198 53.5013 82.8127 50.0587Z" fill="black"/>
</g>
<path opacity="0.1" d="M55.8798 77.7687C55.7061 78.0753 55.5365 78.382 55.3811 78.6968C55.3218 78.8174 55.2646 78.9421 55.2135 79.0668C54.1425 77.9874 51.5344 75.4218 50.0791 74.6266C50.4329 73.8681 50.8942 73.1644 51.4485 72.5374C51.4485 72.5374 54.9171 74.3711 55.8798 77.7687Z" fill="black"/>
<path d="M55.9759 77.601C55.1726 73.9643 51.4485 71.9956 51.4485 71.9956C50.8937 72.6223 50.4324 73.326 50.0791 74.0849C51.6141 74.9251 54.4429 77.7421 55.3811 78.6968L55.9759 77.601Z" fill="#FF748E"/>
</g>
<defs>
<linearGradient id="paint0_linear_66_2" x1="149.215" y1="19.5045" x2="149.215" y2="15.7471" gradientUnits="userSpaceOnUse">
<stop stop-color="#808080" stop-opacity="0.25"/>
<stop offset="0.54" stop-color="#808080" stop-opacity="0.12"/>
<stop offset="1" stop-color="#808080" stop-opacity="0.1"/>
</linearGradient>
<linearGradient id="paint1_linear_66_2" x1="115.04" y1="160.002" x2="115.04" y2="-2.2927e-05" gradientUnits="userSpaceOnUse">
<stop stop-color="#808080" stop-opacity="0.25"/>
<stop offset="0.54" stop-color="#808080" stop-opacity="0.12"/>
<stop offset="1" stop-color="#808080" stop-opacity="0.1"/>
</linearGradient>
<clipPath id="clip0_66_2">
<rect width="222" height="160" fill="white"/>
</clipPath>
</defs>
</svg>
